<svg width="137" height="25" fill="none" xmlns="http://www.w3.org/2000/svg"><path d="M15.966 16.143c-1.968-.643-4.068-.67-4.068-.67h-.237s-1.929.053-3.806.618c4.45 1.745 8.111.052 8.111.052z" fill="#FFDE17"/><path d="M11.99 24.78c6.212 0 11.248-5.036 11.248-11.249 0-6.212-5.036-11.247-11.248-11.247S.742 7.319.742 13.53c0 6.213 5.036 11.248 11.248 11.248z" fill="#FFCF32"/><path d="M21.098 17.22c.026 0 .026 0 .053-.027a8.837 8.837 0 001.496-.735c.38-.236.853-.55 1.352-.997l.026-.026c.38-.263.38-.88.21-1.234-.328-.551-1.234-.998-1.785-1.313 0 0-.787-.406-1.496-.524-.027 0-.092 0-.118-.027a.982.982 0 00-.591.118 1.036 1.036 0 00-.38.433c-.027.027-.027.092-.027.119-.236.669-.236 1.548-.236 1.548 0 .643-.026 1.64.328 2.166.197.446.761.709 1.168.499zM17.318 16.695c-2.192-1.142-5.42-1.234-5.42-1.234h-.237s-3.228.092-5.42 1.234c-1.208.643-.525 2.664-.407 3.727.092.932 0 .026.17.932.145.735.21 1.614.67 2.231.407.552 1.09.88 1.732.998.145.026.29.052.433.092 2.993.406 5.828 0 5.828 0a2.45 2.45 0 00.433-.092c.67-.118 1.313-.473 1.732-.998.473-.617.525-1.496.67-2.231.17-.906.052 0 .17-.932.171-1.063.84-3.084-.354-3.727z" fill="#1678FB"/><path d="M15.966 16.143c-1.968-.643-4.068-.67-4.068-.67h-.237s-1.929.053-3.806.618c4.45 1.745 8.111.052 8.111.052z" fill="#1369DB"/><path d="M18.106 2.953c-.092-.026-.17-.053-.289-.092-2.638-.67-6.037-.59-6.234-.59-.197 0-3.544-.092-6.182.59-.092.026-.17.026-.289.092a2.109 2.109 0 00-1.444 2.021v.17c.027.906.092 4.804.644 6.918 0 .026.026.052.026.091.17.591.59 1.05 1.142 1.313 0 0 .708.67 6.063.67 5.368 0 6.064-.67 6.064-.67.525-.263.971-.735 1.142-1.313 0-.026.026-.052.026-.091.551-2.114.67-5.972.709-6.917v-.17c.065-.933-.525-1.733-1.378-2.022z" fill="#1678FB"/><path d="M8 7.35A1.404 1.404 0 108 4.54 1.404 1.404 0 008 7.35zM15.087 7.35a1.404 1.404 0 100-2.81 1.404 1.404 0 000 2.81zM15.205 9.58c0-.026-.026-.026-.026-.052l-.053-.092c-.21-.21-.525-.21-.525-.21-2.192.21-4.803.092-6.129 0-.21 0-.38.092-.472.236a.473.473 0 000 .552c.55.97 1.496 1.693 2.572 2.02 1.378.434 2.874-.091 3.898-1.023a3.6 3.6 0 00.735-.932c.066-.157.092-.354 0-.498z" fill="#fff"/><path d="M11.608 2.31c.145 0 2.14-.053 4.253.21C15.296 1.05 13.59 0 11.569 0 9.548 0 7.842 1.05 7.29 2.546c2.14-.302 4.135-.236 4.318-.236z" fill="#16CC65"/><path d="M4.364 21.97v-.052a9.772 9.772 0 00.263-1.64 9.273 9.273 0 00-.053-1.668v-.052c0-.433-.499-.827-.906-.853-.643-.053-1.522.433-2.073.735 0 0-.788.407-1.287.932l-.091.092c-.119.17-.21.354-.21.55a.8.8 0 00.144.552c.026.026.052.053.052.092.407.551 1.169 1.09 1.169 1.09.525.354 1.312.97 1.968.97.407.014.972-.314 1.024-.747z" fill="#1678FB"/><path d="M37.337 23.866c-4.843 0-7.993-3.36-7.993-8.15 0-4.791 3.15-8.151 7.993-8.151 3.649 0 6.208 2.034 7.009 4.266.21.616-.066.931-.46 1.115l-1.456.643c-.617.276-1.077.066-1.326-.341-.59-.893-1.549-2.126-3.767-2.126-2.65 0-4.292 1.667-4.292 4.607 0 2.94 1.641 4.606 4.292 4.606 2.218 0 3.176-1.233 3.767-2.126.25-.407.709-.617 1.326-.341l1.457.643c.406.184.708.499.459 1.116-.866 2.178-3.36 4.239-7.009 4.239zM47.47 23.525c-.552 0-.932-.368-.932-.932V1.92c0-.55.367-.931.932-.931h1.85c.551 0 .932.367.932.931v20.685c0 .551-.367.932-.932.932h-1.85v-.013zM60.62 23.84c-4.974 0-7.993-2.783-7.993-8.15 0-4.7 3.124-8.125 7.81-8.125 4.567 0 7.074 3.4 7.074 7.507 0 1.024-.499 1.693-1.667 1.693h-9.752c.184 2.744 1.851 3.833 4.633 3.833a9.438 9.438 0 003.885-.8c.683-.276 1.142-.316 1.484.367l.433.892c.315.643.249 1.116-.276 1.457-.722.46-2.796 1.326-5.63 1.326zm-4.514-9.476h7.94c-.21-2.56-1.693-3.557-3.701-3.557-2.231 0-3.95.984-4.24 3.556zM79.205 21.648c-1.142 1.207-3.15 2.192-5.316 2.192-3.268 0-5.158-1.851-5.158-4.725 0-2.835 2.258-4.843 6.458-4.843 1.457 0 2.69.275 3.7.617v-1.365c0-1.641-1.023-2.652-3.123-2.652-1.549 0-2.69.434-3.648.84-.5.21-.985.158-1.234-.34l-.552-1.117c-.314-.59-.249-1.115.434-1.483 1.26-.682 3.15-1.207 5.25-1.207 3.7 0 6.457 1.759 6.457 5.84v9.2c0 .552-.367.933-.932.933h-1.417c-.552 0-.932-.368-.932-.932v-.958h.013zm-4.41-.866a6.598 6.598 0 004.042-1.392v-2.008a15.595 15.595 0 00-3.123-.315c-2.074 0-3.268.683-3.268 2.008 0 1.063.826 1.707 2.349 1.707zM88.353 23.525h-1.85c-.552 0-.932-.368-.932-.932V8.799c0-.551.367-.932.931-.932h1.694c.55 0 .931.368.931.932v1.693c.867-1.234 2.376-2.625 4.725-2.625.617 0 .932.368.932.932v1.759c0 .525-.367.866-.932.866h-.499c-2.034 0-3.123.46-4.081 1.3v9.882c0 .551-.368.919-.919.919zM103.88 23.525h-1.05c-4.725 0-6.365-2.218-6.365-5.434V4.074c0-.551.367-.932.931-.932h1.851c.551 0 .932.368.932.932v3.793h3.701c.551 0 .932.368.932.932v1.391c0 .551-.368.932-.932.932h-3.701v7.416c0 1.168.801 1.758 2.218 1.758h1.483c.551 0 .932.368.932.932v1.391c0 .538-.381.906-.932.906zM116.663 21.648c-1.142 1.207-3.15 2.192-5.315 2.192-3.268 0-5.158-1.851-5.158-4.725 0-2.835 2.257-4.843 6.457-4.843 1.457 0 2.691.275 3.701.617v-1.365c0-1.641-1.023-2.652-3.123-2.652-1.549 0-2.691.434-3.649.84-.499.21-.984.158-1.234-.34l-.551-1.117c-.315-.59-.249-1.115.433-1.483 1.26-.682 3.15-1.207 5.25-1.207 3.701 0 6.457 1.759 6.457 5.84v9.2c0 .552-.367.933-.932.933h-1.417c-.551 0-.932-.368-.932-.932v-.958h.013zm-4.41-.866a6.599 6.599 0 004.043-1.392v-2.008a15.595 15.595 0 00-3.124-.315c-2.074 0-3.268.683-3.268 2.008 0 1.063.827 1.707 2.349 1.707zM124.315 23.525h-2.1c-.551 0-.709-.525-.459-.893l4.751-6.982-4.751-6.89c-.276-.407-.092-.893.459-.893h2.192c.801 0 1.207.158 1.549.709l2.992 4.633 2.966-4.633c.342-.525.735-.709 1.549-.709h2.1c.551 0 .709.525.459.893l-4.751 6.995 4.751 6.89c.276.407.092.893-.459.893h-2.192c-.8 0-1.207-.184-1.549-.709l-2.992-4.646-2.94 4.58c-.367.552-.761.762-1.575.762z" fill="#314259"/></svg>