<svg width="42" height="64" viewBox="0 0 42 64" fill="none" xmlns="http://www.w3.org/2000/svg">
<g clip-path="url(#clip0)">
<path d="M35.4261 63.7241H6.57391C2.94 63.7241 0 60.8177 0 57.2254V6.49878C0 2.9064 2.94 0 6.57391 0H35.4261C39.06 0 42 2.9064 42 6.49878V57.2254C42 60.8177 39.06 63.7241 35.4261 63.7241Z" fill="#314259"/>
<path d="M20.9997 58.9227C23.4907 58.9227 25.5101 56.9263 25.5101 54.4638C25.5101 52.0012 23.4907 50.0049 20.9997 50.0049C18.5086 50.0049 16.4893 52.0012 16.4893 54.4638C16.4893 56.9263 18.5086 58.9227 20.9997 58.9227Z" fill="white"/>
</g>
<path d="M8.97949 34.8104C8.97949 31.2379 11.8756 28.3418 15.4481 28.3418H26.9379C30.5105 28.3418 33.4066 31.2379 33.4066 34.8104V41.9358C33.4066 42.3327 33.0848 42.6545 32.6878 42.6545H9.69823C9.30128 42.6545 8.97949 42.3327 8.97949 41.9358V34.8104Z" fill="white"/>
<ellipse cx="21.2666" cy="19.6152" rx="6.87011" ry="6.87011" fill="white"/>
<defs>
<clipPath id="clip0">
<rect width="42" height="63.7241" fill="white"/>
</clipPath>
</defs>
</svg>
