<svg width="80" height="80" viewBox="0 0 80 80" fill="none" xmlns="http://www.w3.org/2000/svg">
<g clip-path="url(#clip0)">
<path d="M52.3652 67.6207H27.6348C24.52 67.6207 22 65.1295 22 62.0503V18.5704C22 15.4912 24.52 13 27.6348 13H52.3652C55.48 13 58 15.4912 58 18.5704V62.0503C58 65.1295 55.48 67.6207 52.3652 67.6207Z" fill="#314259"/>
<path d="M39.9999 63.5051C42.1351 63.5051 43.866 61.794 43.866 59.6832C43.866 57.5725 42.1351 55.8613 39.9999 55.8613C37.8647 55.8613 36.1338 57.5725 36.1338 59.6832C36.1338 61.794 37.8647 63.5051 39.9999 63.5051Z" fill="white"/>
<path d="M46.0961 30.4491H43.278C43.1122 29.7647 42.7806 29.2513 42.2833 28.7379H46.0961C46.925 28.7379 47.4223 28.0535 47.4223 27.369C47.4223 26.6845 46.7592 26 46.0961 26H34.3262C33.4973 26 33 26.6845 33 27.369C33 28.0535 33.6631 28.7379 34.3262 28.7379H35.6524C37.6417 28.7379 39.2994 29.4224 40.294 30.4491H34.492C33.6631 30.4491 33.1658 31.1336 33.1658 31.8181C33.1658 32.5026 33.8289 33.1871 34.492 33.1871H40.9571C40.7914 33.7004 40.6256 34.0427 40.294 34.3849C39.4652 35.2405 37.9732 35.5828 36.1497 35.5828C35.6524 35.5828 35.1551 35.5828 34.6577 35.4117C34.492 35.4117 34.3262 35.4117 34.1604 35.4117C33.9946 35.4117 33.8289 35.5828 33.6631 35.7539C33.6631 35.7539 33.4973 35.7539 33.4973 35.925C33.4973 36.0961 33.3315 36.0961 33.3315 36.2673C33.3315 36.4384 33.3315 36.4384 33.1658 36.6095V36.7806C33.1658 36.9517 33.1658 37.1229 33.1658 37.294C33.1658 37.4651 33.3315 37.6362 33.4973 37.8073L41.4544 46.7056C41.786 47.0479 42.1175 47.219 42.4491 47.219C42.7806 47.219 43.1122 47.0479 43.4437 46.8768C43.941 46.3634 44.1068 45.5078 43.4437 44.8233L37.6417 38.3207C39.6309 38.1496 41.1229 37.4651 42.2833 36.2673C43.1122 35.4117 43.6095 34.3849 43.7753 33.016H46.2619C47.0907 33.016 47.5881 32.3315 47.5881 31.647C47.5881 30.9625 46.7592 30.4491 46.0961 30.4491Z" fill="white"/>
</g>
<defs>
<clipPath id="clip0">
<rect width="36" height="54.6207" fill="white" transform="translate(22 13)"/>
</clipPath>
</defs>
</svg>
