<svg width="80" height="80" viewBox="0 0 80 80" fill="none" xmlns="http://www.w3.org/2000/svg">
<g clip-path="url(#clip0)">
<path d="M52.3652 67.6207H27.6348C24.52 67.6207 22 65.1295 22 62.0503V18.5704C22 15.4912 24.52 13 27.6348 13H52.3652C55.48 13 58 15.4912 58 18.5704V62.0503C58 65.1295 55.48 67.6207 52.3652 67.6207Z" fill="#314259"/>
<path d="M39.5011 26.7816C39.7927 26.2047 40.6126 26.1938 40.9193 26.7628L43.8328 32.1675C43.9535 32.3914 44.1735 32.5446 44.4254 32.58L50.4931 33.4344C51.1621 33.5286 51.4204 34.3584 50.923 34.8156L46.5061 38.8753C46.3035 39.0615 46.2108 39.3387 46.2607 39.6093L47.3286 45.403C47.4479 46.0505 46.7777 46.557 46.1874 46.2653L40.5525 43.4807C40.3258 43.3687 40.0595 43.3704 39.8343 43.4854L34.4508 46.2344C33.8601 46.5361 33.18 46.0292 33.3002 45.377L34.3633 39.6093C34.4132 39.3387 34.3205 39.0615 34.1179 38.8753L29.701 34.8156C29.2036 34.3584 29.4619 33.5286 30.1309 33.4344L36.1853 32.5819C36.4446 32.5454 36.6697 32.3843 36.7878 32.1506L39.5011 26.7816Z" fill="white"/>
<path d="M39.9999 63.5051C42.1351 63.5051 43.866 61.794 43.866 59.6832C43.866 57.5725 42.1351 55.8613 39.9999 55.8613C37.8647 55.8613 36.1338 57.5725 36.1338 59.6832C36.1338 61.794 37.8647 63.5051 39.9999 63.5051Z" fill="white"/>
</g>
<defs>
<clipPath id="clip0">
<rect width="36" height="54.6207" fill="white" transform="translate(22 13)"/>
</clipPath>
</defs>
</svg>
