<svg width="352" height="71" viewBox="0 0 352 71" fill="none" xmlns="http://www.w3.org/2000/svg">
<path d="M210.763 6.74C207.943 6.56 206.383 8 206.383 10.7V11H204.783V12.68H206.383V21H208.123V12.68H210.763V11H208.123V10.7C208.123 9.04 209.003 8.28 210.763 8.42V6.74ZM219.981 19.74C221.001 18.72 221.521 17.48 221.521 16C221.521 14.52 221.001 13.28 219.981 12.26C218.961 11.24 217.701 10.74 216.241 10.74C214.781 10.74 213.521 11.24 212.501 12.26C211.481 13.28 210.981 14.52 210.981 16C210.981 17.48 211.481 18.72 212.501 19.74C213.521 20.76 214.781 21.26 216.241 21.26C217.701 21.26 218.961 20.76 219.981 19.74ZM216.241 19.56C215.261 19.56 214.421 19.22 213.741 18.54C213.061 17.86 212.721 17.02 212.721 16C212.721 14.98 213.061 14.14 213.741 13.46C214.421 12.78 215.261 12.44 216.241 12.44C217.241 12.44 218.081 12.78 218.761 13.46C219.441 14.14 219.781 14.98 219.781 16C219.781 17.02 219.441 17.86 218.761 18.54C218.081 19.22 217.241 19.56 216.241 19.56ZM225.312 11H223.572V21H225.312V15.7C225.312 14.6 225.612 13.82 226.232 13.32C226.852 12.82 227.572 12.6 228.432 12.64V10.82C226.932 10.82 225.892 11.44 225.312 12.68V11ZM240.934 10.74C239.534 10.74 238.494 11.3 237.794 12.44C237.174 11.3 236.194 10.74 234.854 10.74C233.554 10.74 232.554 11.28 231.874 12.34V11H230.134V21H231.874V15.44C231.874 13.42 232.974 12.4 234.434 12.4C235.734 12.4 236.554 13.3 236.554 14.84V21H238.294V15.44C238.294 13.38 239.254 12.4 240.754 12.4C242.094 12.4 242.954 13.3 242.954 14.84V21H244.694V14.78C244.694 12.3 243.174 10.74 240.934 10.74ZM256.707 16.8C256.747 16.54 256.767 16.28 256.767 16.02C256.767 14.56 256.307 13.32 255.367 12.3C254.447 11.26 253.247 10.74 251.787 10.74C250.247 10.74 248.987 11.24 248.007 12.24C247.027 13.24 246.547 14.5 246.547 16C246.547 17.52 247.047 18.78 248.027 19.78C249.027 20.76 250.327 21.26 251.907 21.26C253.867 21.26 255.327 20.5 256.307 19L254.827 18.16C254.227 19.14 253.267 19.62 251.947 19.62C250.047 19.62 248.667 18.58 248.327 16.8H256.707ZM251.787 12.38C253.387 12.38 254.707 13.38 255.007 15.28H248.327C248.627 13.52 249.927 12.38 251.787 12.38ZM260.507 11H258.767V21H260.507V15.7C260.507 14.6 260.807 13.82 261.427 13.32C262.047 12.82 262.767 12.6 263.627 12.64V10.82C262.127 10.82 261.087 11.44 260.507 12.68V11ZM267.07 21V6.4H265.33V21H267.07ZM273.824 18.84L270.424 11H268.564L272.924 20.96L272.744 21.34C272.164 22.8 271.264 23.48 270.044 23.38V25C272.044 25.14 273.624 23.88 274.484 21.62L278.564 11H276.704L273.824 18.84Z" fill="white"/>
<path d="M212.12 62.48C216 62.48 219.44 60.48 221.08 57.28L218.88 56C217.56 58.4 215.12 59.92 212.12 59.92C209.92 59.92 208.04 59.16 206.52 57.64C205 56.08 204.24 54.2 204.24 52C204.24 49.8 205 47.92 206.52 46.4C208.04 44.84 209.92 44.08 212.12 44.08C215.12 44.08 217.64 45.6 218.72 48L220.88 46.76C219.44 43.56 216.08 41.52 212.12 41.52C209.12 41.52 206.6 42.52 204.6 44.56C202.6 46.56 201.6 49.04 201.6 52C201.6 54.96 202.6 57.44 204.6 59.48C206.6 61.48 209.12 62.48 212.12 62.48ZM227.51 62V32.8H224.87V62H227.51ZM242.353 41.52C239.273 41.52 236.793 42.52 234.833 44.52C232.873 46.52 231.913 49 231.913 52C231.913 55.04 232.913 57.56 234.873 59.52C236.833 61.48 239.393 62.48 242.553 62.48C246.433 62.48 249.593 60.72 251.353 57.88L249.033 56.52C247.913 58.56 245.633 59.92 242.593 59.92C238.313 59.92 235.153 57.36 234.633 53.32H252.193C252.233 52.8 252.273 52.36 252.273 52.08C252.273 49.24 251.353 46.76 249.513 44.68C247.713 42.56 245.313 41.52 242.353 41.52ZM242.353 44.08C244.153 44.08 245.753 44.68 247.113 45.84C248.473 47 249.273 48.64 249.553 50.76H234.633C235.153 46.8 238.193 44.08 242.353 44.08ZM273.672 45.92C271.832 43 269.152 41.52 265.592 41.52C262.752 41.52 260.312 42.52 258.272 44.56C256.272 46.6 255.272 49.08 255.272 52C255.272 54.92 256.272 57.4 258.272 59.44C260.312 61.48 262.752 62.48 265.592 62.48C269.152 62.48 271.832 61 273.672 58.08V62H276.312V42H273.672V45.92ZM260.192 57.64C258.672 56.08 257.912 54.2 257.912 52C257.912 49.8 258.672 47.92 260.192 46.4C261.712 44.84 263.592 44.08 265.792 44.08C267.992 44.08 269.872 44.84 271.392 46.4C272.912 47.92 273.672 49.8 273.672 52C273.672 54.2 272.912 56.08 271.392 57.64C269.872 59.16 267.992 59.92 265.792 59.92C263.592 59.92 261.712 59.16 260.192 57.64ZM284.542 42H281.902V62H284.542V50.88C284.542 46.28 287.222 44.24 290.862 44.24V41.68C287.862 41.68 285.782 42.88 284.542 45.32V42ZM305.47 42H299.71V36.4L297.07 37.2V42H292.87V44.56H297.07V56.68C297.07 61.32 299.87 62.84 305.47 62V59.68C301.63 59.84 299.71 60.12 299.71 56.68V44.56H305.47V42ZM325.859 45.92C324.019 43 321.339 41.52 317.779 41.52C314.939 41.52 312.499 42.52 310.459 44.56C308.459 46.6 307.459 49.08 307.459 52C307.459 54.92 308.459 57.4 310.459 59.44C312.499 61.48 314.939 62.48 317.779 62.48C321.339 62.48 324.019 61 325.859 58.08V62H328.499V42H325.859V45.92ZM312.379 57.64C310.859 56.08 310.099 54.2 310.099 52C310.099 49.8 310.859 47.92 312.379 46.4C313.899 44.84 315.779 44.08 317.979 44.08C320.179 44.08 322.059 44.84 323.579 46.4C325.099 47.92 325.859 49.8 325.859 52C325.859 54.2 325.099 56.08 323.579 57.64C322.059 59.16 320.179 59.92 317.979 59.92C315.779 59.92 313.899 59.16 312.379 57.64ZM343.089 51.64L350.369 42H347.209L341.489 49.56L335.769 42H332.609L339.929 51.64L332.089 62H335.249L341.489 53.76L347.729 62H350.889L343.089 51.64Z" fill="white"/>
<path d="M21.6926 60.0994C8.94943 60.0994 0.695312 51.266 0.695312 38.6676C0.695312 26.0692 8.94943 17.2358 21.6926 17.2358C31.25 17.2358 37.9837 22.5938 40.0834 28.4585C40.5902 29.4722 40.2282 30.7031 39.2146 31.2099C39.1422 31.2823 38.9973 31.2823 38.8525 31.3547L35.0151 33.0924C33.7842 33.8165 32.2637 33.3821 31.5397 32.1512C30.0192 29.7618 27.485 26.576 21.6202 26.576C14.6694 26.576 10.3251 30.9203 10.3251 38.6676C10.3251 46.4149 14.597 50.7592 21.6202 50.7592C27.485 50.7592 29.9468 47.501 31.5397 45.184C32.2637 43.9531 33.7842 43.5187 35.0151 44.2427L38.8525 45.9805C39.9386 46.2701 40.5178 47.4286 40.2282 48.5146C40.1558 48.6594 40.1558 48.8042 40.0834 48.949C37.8389 54.669 31.3225 60.0994 21.6926 60.0994Z" fill="white"/>
<path d="M48.3368 59.2309C47.0335 59.3033 45.9474 58.362 45.875 57.0588C45.875 56.9863 45.875 56.8415 45.875 56.7691V2.46567C45.8026 1.16238 46.7439 0.0763136 48.0471 0.00390903C48.1195 0.00390903 48.2644 0.00390903 48.3368 0.00390903H53.1879C54.4911 -0.0684956 55.5772 0.872764 55.6496 2.17605C55.6496 2.24845 55.6496 2.32086 55.6496 2.46567V56.8415C55.722 58.1448 54.7808 59.2309 53.4775 59.3033C53.4051 59.3033 53.3327 59.3033 53.1879 59.3033L48.3368 59.2309Z" fill="white"/>
<path d="M82.8723 60.027C69.8395 60.027 61.875 52.7141 61.875 38.5952C61.875 26.2864 70.0567 17.2358 82.4379 17.2358C94.4571 17.2358 100.973 26.1416 100.973 36.9299C100.973 39.6089 99.6702 41.419 96.5568 41.419H70.998C71.5048 48.6594 75.8491 51.4832 83.162 51.4832C86.7098 51.4832 90.1852 50.8316 93.371 49.3835C95.1811 48.6594 96.412 48.587 97.2809 50.3247L98.4393 52.7141C99.2358 54.3794 99.091 55.6103 97.7153 56.5515C95.7604 57.7824 90.33 60.027 82.8723 60.027ZM71.0704 35.1198H91.9953C91.4161 28.3861 87.5062 25.7796 82.2931 25.7796C76.2835 25.7796 71.7944 28.3861 71.0704 35.1198Z" fill="white"/>
<path d="M131.746 54.3078C128.053 58.0004 123.057 60.0278 117.844 60.1002C109.228 60.1002 104.305 55.2491 104.305 47.719C104.305 40.1889 110.242 34.9758 121.247 34.9758C124.506 34.9758 127.836 35.555 130.95 36.5687V33.0209C130.95 28.749 128.271 26.07 122.768 26.07C119.437 26.1424 116.179 26.8665 113.21 28.2422C111.907 28.8214 110.604 28.6766 109.952 27.3009L108.504 24.4047C107.708 22.8842 107.853 21.5085 109.663 20.4949C113.934 18.3227 118.641 17.2367 123.419 17.3091C133.194 17.3091 140.362 21.943 140.362 32.6588V56.842C140.435 58.1453 139.493 59.2313 138.19 59.3037C138.118 59.3037 138.045 59.3037 137.9 59.3037H134.208C132.904 59.3761 131.818 58.4349 131.746 57.1316C131.746 57.0592 131.746 56.9868 131.746 56.842V54.3078ZM120.089 51.9909C123.926 51.9909 127.691 50.6876 130.732 48.3706V43.0851C128.053 42.5059 125.302 42.2886 122.551 42.2886C117.12 42.2886 113.934 44.0988 113.934 47.5742C113.934 50.3256 116.179 51.9909 120.089 51.9909Z" fill="white"/>
<path d="M155.711 59.2309H150.86C149.557 59.3033 148.471 58.362 148.398 57.0587C148.398 56.9863 148.398 56.9139 148.398 56.7691V20.5668C148.326 19.2635 149.267 18.1775 150.571 18.1051C150.643 18.1051 150.788 18.1051 150.86 18.1051H155.349C156.653 18.0327 157.739 18.9739 157.811 20.2048C157.811 20.2772 157.811 20.422 157.811 20.4944V24.9835C160.056 21.7253 164.038 18.1051 170.192 18.1051C171.423 17.9602 172.509 18.9015 172.654 20.1324C172.654 20.2772 172.654 20.422 172.654 20.5668V25.2007C172.726 26.4316 171.713 27.4453 170.482 27.5177C170.409 27.5177 170.265 27.5177 170.192 27.5177H168.889C163.531 27.5177 160.707 28.7485 158.173 30.9207V56.9139C158.245 58.2172 157.232 59.2309 156.001 59.3033C155.929 59.2309 155.856 59.2309 155.711 59.2309Z" fill="white"/>
</svg>
