<svg width="80" height="80" viewBox="0 0 80 80" fill="none" xmlns="http://www.w3.org/2000/svg">
<path d="M61.0223 30.3044V59.9495C61.0223 64.1272 57.6495 67.5 53.4718 67.5H26.5276C22.3499 67.5 18.9771 64.1272 18.9771 59.9495V20.0505C18.9771 15.8728 22.3499 12.5 26.5276 12.5H43.2182L61.0223 30.3044Z" fill="#314259"/>
<path d="M43.2183 29.9807V12.5L60.6989 29.9807H43.2183Z" fill="#9092A3"/>
<path d="M45.8012 41.04H42.983C42.8173 40.3555 42.4857 39.8421 41.9884 39.3288H45.8012C46.6301 39.3288 47.1274 38.6443 47.1274 37.9598C47.1274 37.2753 46.4643 36.5908 45.8012 36.5908H34.0313C33.2024 36.5908 32.7051 37.2753 32.7051 37.9598C32.7051 38.6443 33.3682 39.3288 34.0313 39.3288H35.3575C37.3467 39.3288 39.0045 40.0132 39.9991 41.04H34.197C33.3682 41.04 32.8709 41.7245 32.8709 42.4089C32.8709 43.0934 33.5339 43.7779 34.197 43.7779H40.6622C40.4964 44.2913 40.3307 44.6335 39.9991 44.9757C39.1702 45.8314 37.6783 46.1736 35.8548 46.1736C35.3575 46.1736 34.8601 46.1736 34.3628 46.0025C34.197 46.0025 34.0313 46.0025 33.8655 46.0025C33.6997 46.0025 33.5339 46.1736 33.3682 46.3447C33.3682 46.3447 33.2024 46.3447 33.2024 46.5158C33.2024 46.687 33.0366 46.687 33.0366 46.8581C33.0366 47.0292 33.0366 47.0292 32.8709 47.2003V47.3714C32.8709 47.5426 32.8709 47.7137 32.8709 47.8848C32.8709 48.0559 33.0366 48.227 33.2024 48.3982L41.1595 57.2965C41.4911 57.6387 41.8226 57.8098 42.1542 57.8098C42.4857 57.8098 42.8173 57.6387 43.1488 57.4676C43.6461 56.9542 43.8119 56.0986 43.1488 55.4141L37.3467 48.9115C39.336 48.7404 40.828 48.0559 41.9884 46.8581C42.8173 46.0025 43.3146 44.9758 43.4804 43.6068H45.967C46.7958 43.6068 47.2931 42.9223 47.2931 42.2378C47.2931 41.5533 46.4643 41.04 45.8012 41.04Z" fill="white"/>
</svg>
