<svg width="80" height="80" viewBox="0 0 80 80" fill="none" xmlns="http://www.w3.org/2000/svg">
<path d="M48.8237 30.4805H57.6212C58.5095 30.4805 59.3443 30.9193 59.858 31.647L67.0072 41.9214C67.3283 42.3816 67.4995 42.9274 67.4995 43.484V49.2098C67.4995 50.7188 66.2795 51.9389 64.7704 51.9389H50.1508L47.8605 41.8251L47.3789 38.2398L48.8237 30.4805Z" fill="#314259"/>
<path d="M50.1513 51.9376H16.5883C14.3301 51.9376 12.5 50.1075 12.5 47.8493V26.3266C12.5 24.0684 14.3301 22.2383 16.5883 22.2383H46.0522C48.3104 22.2383 50.1406 24.0684 50.1406 26.3266V51.9376H50.1513Z" fill="#314259"/>
<path d="M25.2129 57.7618C28.0445 57.7618 30.3399 55.4664 30.3399 52.6348C30.3399 49.8032 28.0445 47.5078 25.2129 47.5078C22.3814 47.5078 20.0859 49.8032 20.0859 52.6348C20.0859 55.4664 22.3814 57.7618 25.2129 57.7618Z" fill="#9092A3"/>
<path d="M58.2364 57.7618C61.0679 57.7618 63.3634 55.4664 63.3634 52.6348C63.3634 49.8032 61.0679 47.5078 58.2364 47.5078C55.4048 47.5078 53.1094 49.8032 53.1094 52.6348C53.1094 55.4664 55.4048 57.7618 58.2364 57.7618Z" fill="#9092A3"/>
</svg>
