<svg width="48" height="48" viewBox="0 0 48 48" fill="none" xmlns="http://www.w3.org/2000/svg">
<path d="M39.0854 26.829C38.6589 26.4452 38.1898 26.1324 37.7491 25.777C36.0289 24.3981 36.0432 24.3981 36.0432 22.1946C36.0432 21.626 36.2137 21.2137 36.6971 20.8725C37.5216 20.2755 38.3177 19.65 39.1138 18.996C39.7819 18.4416 39.8672 18.0294 39.4408 17.2617C38.5309 15.6269 37.6211 13.992 36.6402 12.3999C36.1142 11.5469 35.7588 11.4332 34.8064 11.7886C33.8539 12.1582 32.9156 12.5562 31.9632 12.9116C31.5936 13.0396 31.2382 13.1107 30.8828 12.8406C30.4137 12.4852 29.8877 12.2151 29.3475 11.9592C28.9068 11.7601 28.722 11.4332 28.6651 10.9641C28.5514 9.9263 28.3666 8.90275 28.2386 7.86499C28.1818 7.38165 28.0112 6.99782 27.4852 6.88409H20.5194C19.9792 6.99782 19.8512 7.41008 19.7802 7.87921C19.6522 8.91697 19.4674 9.94051 19.3537 10.9783C19.2968 11.4616 19.0836 11.7601 18.6571 11.945C18.2022 12.1582 17.7331 12.343 17.3492 12.67C16.8659 13.0822 16.3826 13.0538 15.8423 12.8121C14.9183 12.3999 13.9516 12.0445 12.9992 11.7033C12.3026 11.4474 11.8619 11.5753 11.5207 12.144C10.5114 13.8783 9.50206 15.6269 8.53537 17.3896C8.15154 18.1004 8.25106 18.4558 8.90499 18.9818C9.33146 19.323 9.78637 19.6358 10.2129 19.9769C12.0325 21.4127 12.0183 21.4127 11.9614 23.7442C11.9472 24.2417 11.7908 24.6113 11.3928 24.8956C10.6251 25.4501 9.9001 26.0614 9.13244 26.63C8.19419 27.3266 8.12311 27.7104 8.70597 28.7339C9.60157 30.2977 10.483 31.8614 11.3928 33.411C11.8619 34.2213 12.2742 34.3777 13.1555 34.0507C14.1222 33.6811 15.0889 33.283 16.0556 32.885C16.4821 32.7002 16.8801 32.7144 17.2639 32.9987C17.7188 33.3399 18.2164 33.6242 18.7282 33.8517C19.1404 34.0365 19.311 34.3492 19.3679 34.7899C19.4958 35.8277 19.6664 36.8512 19.7944 37.889C19.8512 38.3581 19.9934 38.7704 20.5336 38.8841H27.4994C28.0822 38.7277 28.1249 38.2302 28.196 37.7753C28.3239 36.9792 28.4803 36.1831 28.5372 35.387C28.594 34.4487 28.9921 33.8374 29.8877 33.5531C30.172 33.4536 30.4421 33.2688 30.6695 33.0698C31.096 32.7002 31.5509 32.7002 32.0485 32.9134C32.9583 33.2972 33.8823 33.6669 34.8206 34.0223C35.6593 34.3492 36.1142 34.2355 36.5691 33.4678C37.55 31.8188 38.4883 30.1555 39.4265 28.4781C39.7677 27.8383 39.6398 27.3266 39.0854 26.829ZM24.0165 28.4923C20.9316 28.5065 18.4296 25.9903 18.4012 22.8486C18.3728 19.8774 20.9032 17.3186 23.8886 17.2901C27.0303 17.2617 29.5891 19.7921 29.5891 22.9338C29.6033 25.9192 27.0445 28.4781 24.0165 28.4923Z" fill="#314259"/>
<path d="M29.6039 22.9339C29.6181 25.9192 27.0451 28.4781 24.0313 28.4923C20.9464 28.5065 18.4444 25.9903 18.416 22.8486C18.3876 19.8774 20.918 17.3186 23.9033 17.2902C27.0308 17.2617 29.5897 19.7922 29.6039 22.9339Z" fill="white"/>
</svg>
