<svg width="80" height="80" viewBox="0 0 80 80" fill="none" xmlns="http://www.w3.org/2000/svg">
<path d="M42.7395 62.2905H18.5849C15.225 62.2905 12.5 59.5655 12.5 56.2055V23.5849C12.5 20.225 15.225 17.5 18.5849 17.5H42.7395C46.0995 17.5 48.8245 20.225 48.8245 23.5849V56.2055C48.8245 59.5655 46.0995 62.2905 42.7395 62.2905Z" fill="#314259"/>
<path d="M41.5225 30.7282H19.8284C18.9024 30.7282 18.1616 29.9875 18.1616 29.0615V25.5164C18.1616 24.5904 18.9024 23.8496 19.8284 23.8496H41.5225C42.4485 23.8496 43.1892 24.5904 43.1892 25.5164V29.035C43.1892 29.9875 42.4485 30.7282 41.5225 30.7282Z" fill="white"/>
<path d="M24.5901 45.0671H19.3518C18.6903 45.0671 18.1348 44.538 18.1348 43.8501V39.6965C18.1348 39.0351 18.6639 38.4795 19.3518 38.4795H24.5901C25.2515 38.4795 25.8071 39.0086 25.8071 39.6965V43.8501C25.8071 44.538 25.278 45.0671 24.5901 45.0671Z" fill="white"/>
<path d="M35.0414 45.0671H29.7766C29.1152 45.0671 28.5596 44.538 28.5596 43.8501V39.6965C28.5596 39.0351 29.0887 38.4795 29.7766 38.4795H35.0149C35.6763 38.4795 36.2319 39.0086 36.2319 39.6965V43.8501C36.2319 44.538 35.7028 45.0671 35.0414 45.0671Z" fill="white"/>
<path d="M24.5901 54.5388H19.3518C18.6903 54.5388 18.1348 54.0097 18.1348 53.3218V49.1682C18.1348 48.5068 18.6639 47.9512 19.3518 47.9512H24.5901C25.2515 47.9512 25.8071 48.4803 25.8071 49.1682V53.3218C25.8071 54.0097 25.278 54.5388 24.5901 54.5388Z" fill="white"/>
<path d="M35.0414 54.5388H29.7766C29.1152 54.5388 28.5596 54.0097 28.5596 53.3218V49.1682C28.5596 48.5068 29.0887 47.9512 29.7766 47.9512H35.0149C35.6763 47.9512 36.2319 48.4803 36.2319 49.1682V53.3218C36.2319 54.0097 35.7028 54.5388 35.0414 54.5388Z" fill="white"/>
<path d="M52.7149 64.4297C61.9462 64.4297 69.4297 56.9462 69.4297 47.7149C69.4297 38.4835 61.9462 31 52.7149 31C43.4835 31 36 38.4835 36 47.7149C36 56.9462 43.4835 64.4297 52.7149 64.4297Z" fill="#9092A3"/>
<path d="M47.8726 51.6438L57.4117 42.0762" stroke="white" stroke-miterlimit="10"/>
<path d="M56.9858 53.6367C58.3226 53.6367 59.4062 52.553 59.4062 51.2163C59.4062 49.8795 58.3226 48.7959 56.9858 48.7959C55.6491 48.7959 54.5654 49.8795 54.5654 51.2163C54.5654 52.553 55.6491 53.6367 56.9858 53.6367Z" stroke="white" stroke-miterlimit="10"/>
<path d="M48.2148 44.8671C49.5516 44.8671 50.6352 43.7835 50.6352 42.4467C50.6352 41.11 49.5516 40.0264 48.2148 40.0264C46.8781 40.0264 45.7944 41.11 45.7944 42.4467C45.7944 43.7835 46.8781 44.8671 48.2148 44.8671Z" stroke="white" stroke-miterlimit="10"/>
</svg>
