<svg width="23" height="22" viewBox="0 0 23 22" fill="none" xmlns="http://www.w3.org/2000/svg">
<path d="M0.23858 7.41018V18.3863C0.23858 19.9331 1.48737 21.1819 3.03416 21.1819H13.0103C14.5571 21.1819 15.8058 19.9331 15.8058 18.3863V3.6137C15.8058 2.0669 14.5571 0.818115 13.0103 0.818115H6.83057L0.23858 7.41018Z" fill="#314259"/>
<path d="M6.83075 7.29032V0.818115L0.358541 7.29032H6.83075Z" fill="#9092A3"/>
<path d="M18.8464 5.51356L8.05271 12.4599L6.93352 14.171C6.46396 14.889 7.05701 15.8261 7.90685 15.709L9.9616 15.426L20.7553 8.47975C21.5744 7.95263 21.8111 6.8613 21.284 6.04221C20.7568 5.22312 19.6655 4.98643 18.8464 5.51356Z" fill="#9092A3"/>
</svg>
