<svg width="350" height="65" viewBox="0 0 350 65" fill="none" xmlns="http://www.w3.org/2000/svg">
<path d="M224.884 14.4222C221.717 14.2111 219.958 15.853 219.958 18.9256V19.3947H217.964V20.8958H219.958V31.1223H221.506V20.8958H224.884V19.3947H221.506V18.9256C221.506 16.6739 222.608 15.7357 224.884 15.9233V14.4222Z" fill="#9092A3"/>
<path d="M235.65 29.6446C236.847 28.4484 237.456 26.9942 237.456 25.2585C237.456 23.5228 236.847 22.0686 235.65 20.8958C234.454 19.6996 233 19.1132 231.288 19.1132C229.576 19.1132 228.098 19.6996 226.902 20.8958C225.705 22.0686 225.119 23.5228 225.119 25.2585C225.119 26.9942 225.705 28.4484 226.902 29.6446C228.098 30.8174 229.576 31.4038 231.288 31.4038C233 31.4038 234.454 30.8174 235.65 29.6446ZM228.004 28.5657C227.113 27.6509 226.667 26.5485 226.667 25.2585C226.667 23.9685 227.113 22.8661 228.004 21.9748C228.895 21.06 229.998 20.6144 231.288 20.6144C232.578 20.6144 233.68 21.06 234.571 21.9748C235.463 22.8661 235.908 23.9685 235.908 25.2585C235.908 26.5485 235.463 27.6509 234.571 28.5657C233.68 29.457 232.578 29.9026 231.288 29.9026C229.998 29.9026 228.895 29.457 228.004 28.5657Z" fill="#9092A3"/>
<path d="M241.595 19.3947H240.047V31.1223H241.595V24.6018C241.595 21.9044 243.167 20.7082 245.301 20.7082V19.2071C243.542 19.2071 242.322 19.9107 241.595 21.3415V19.3947Z" fill="#9092A3"/>
<path d="M259.924 19.1132C258.235 19.1132 256.969 19.8169 256.124 21.2477C255.444 19.8169 254.248 19.1132 252.559 19.1132C251.011 19.1132 249.815 19.77 248.971 21.1069V19.3947H247.423V31.1223H248.971V24.6252C248.971 21.9044 250.472 20.6144 252.348 20.6144C254.037 20.6144 255.092 21.7402 255.092 23.8043V31.1223H256.64V24.6252C256.64 21.881 257.954 20.6144 259.901 20.6144C261.613 20.6144 262.762 21.7637 262.762 23.8043V31.1223H264.31V23.8043C264.31 20.9193 262.551 19.1132 259.924 19.1132Z" fill="#9092A3"/>
<path d="M272.723 19.1132C270.917 19.1132 269.462 19.6996 268.313 20.8724C267.164 22.0451 266.601 23.4994 266.601 25.2585C266.601 27.0411 267.187 28.5188 268.337 29.6681C269.486 30.8174 270.987 31.4038 272.84 31.4038C275.115 31.4038 276.968 30.3717 278 28.7064L276.64 27.9089C275.983 29.1052 274.646 29.9026 272.863 29.9026C270.354 29.9026 268.501 28.4015 268.196 26.0325H278.493C278.516 25.7276 278.54 25.4696 278.54 25.3054C278.54 23.6401 278 22.1859 276.921 20.9662C275.866 19.7231 274.458 19.1132 272.723 19.1132ZM272.723 20.6144C273.778 20.6144 274.716 20.9662 275.514 21.6464C276.311 22.3266 276.78 23.2883 276.945 24.5314H268.196C268.501 22.2093 270.283 20.6144 272.723 20.6144Z" fill="#9092A3"/>
<path d="M282.55 19.3947H281.002V31.1223H282.55V24.6018C282.55 21.9044 284.122 20.7082 286.256 20.7082V19.2071C284.497 19.2071 283.277 19.9107 282.55 21.3415V19.3947Z" fill="#9092A3"/>
<path d="M289.926 31.1223V14H288.378V31.1223H289.926Z" fill="#9092A3"/>
<path d="M297.855 29.2224L293.445 19.3947H291.803L297.057 31.1927L296.752 31.9198C296.025 33.7024 294.946 34.5233 293.539 34.3591V35.8133C295.603 35.9775 297.362 34.5233 298.277 32.2012L303.296 19.3947H301.655L297.855 29.2224Z" fill="#9092A3"/>
<path d="M225.228 63.826C228.706 63.826 231.789 62.0335 233.258 59.1656L231.287 58.0184C230.104 60.1694 227.917 61.5316 225.228 61.5316C223.257 61.5316 221.572 60.8505 220.209 59.4882C218.847 58.0901 218.166 56.4052 218.166 54.4335C218.166 52.4618 218.847 50.7769 220.209 49.4146C221.572 48.0165 223.257 47.3354 225.228 47.3354C227.917 47.3354 230.175 48.6977 231.143 50.8486L233.079 49.7373C231.789 46.8693 228.777 45.041 225.228 45.041C222.54 45.041 220.281 45.9373 218.489 47.7656C216.696 49.558 215.8 51.7807 215.8 54.4335C215.8 57.0863 216.696 59.309 218.489 61.1373C220.281 62.9297 222.54 63.826 225.228 63.826Z" fill="#9092A3"/>
<path d="M239.021 63.3958V37.226H236.655V63.3958H239.021Z" fill="#9092A3"/>
<path d="M252.323 45.041C249.563 45.041 247.34 45.9373 245.584 47.7297C243.827 49.5222 242.967 51.7448 242.967 54.4335C242.967 57.158 243.863 59.4165 245.62 61.1731C247.376 62.9297 249.671 63.826 252.503 63.826C255.98 63.826 258.812 62.2486 260.389 59.7033L258.31 58.4844C257.306 60.3127 255.263 61.5316 252.539 61.5316C248.703 61.5316 245.871 59.2373 245.405 55.6165H261.142C261.178 55.1505 261.214 54.7561 261.214 54.5052C261.214 51.9599 260.389 49.7373 258.74 47.8731C257.127 45.9731 254.976 45.041 252.323 45.041ZM252.323 47.3354C253.937 47.3354 255.371 47.8731 256.589 48.9127C257.808 49.9524 258.525 51.4222 258.776 53.3222H245.405C245.871 49.7731 248.595 47.3354 252.323 47.3354Z" fill="#9092A3"/>
<path d="M280.393 48.9844C278.744 46.3675 276.342 45.041 273.151 45.041C270.606 45.041 268.419 45.9373 266.591 47.7656C264.798 49.5939 263.902 51.8165 263.902 54.4335C263.902 57.0505 264.798 59.2731 266.591 61.1014C268.419 62.9297 270.606 63.826 273.151 63.826C276.342 63.826 278.744 62.4995 280.393 59.8826V63.3958H282.759V45.4712H280.393V48.9844ZM268.312 59.4882C266.949 58.0901 266.268 56.4052 266.268 54.4335C266.268 52.4618 266.949 50.7769 268.312 49.4146C269.674 48.0165 271.359 47.3354 273.33 47.3354C275.302 47.3354 276.987 48.0165 278.349 49.4146C279.712 50.7769 280.393 52.4618 280.393 54.4335C280.393 56.4052 279.712 58.0901 278.349 59.4882C276.987 60.8505 275.302 61.5316 273.33 61.5316C271.359 61.5316 269.674 60.8505 268.312 59.4882Z" fill="#9092A3"/>
<path d="M290.134 45.4712H287.768V63.3958H290.134V53.4297C290.134 49.3071 292.536 47.4788 295.799 47.4788V45.1844C293.11 45.1844 291.246 46.2599 290.134 48.4467V45.4712Z" fill="#9092A3"/>
<path d="M308.891 45.4712H303.729V40.4524L301.363 41.1693V45.4712H297.599V47.7656H301.363V58.6278C301.363 62.7863 303.872 64.1486 308.891 63.3958V61.3165C305.45 61.4599 303.729 61.7109 303.729 58.6278V47.7656H308.891V45.4712Z" fill="#9092A3"/>
<path d="M327.165 48.9844C325.515 46.3675 323.114 45.041 319.923 45.041C317.378 45.041 315.191 45.9373 313.363 47.7656C311.57 49.5939 310.674 51.8165 310.674 54.4335C310.674 57.0505 311.57 59.2731 313.363 61.1014C315.191 62.9297 317.378 63.826 319.923 63.826C323.114 63.826 325.515 62.4995 327.165 59.8826V63.3958H329.531V45.4712H327.165V48.9844ZM315.083 59.4882C313.721 58.0901 313.04 56.4052 313.04 54.4335C313.04 52.4618 313.721 50.7769 315.083 49.4146C316.446 48.0165 318.131 47.3354 320.102 47.3354C322.074 47.3354 323.759 48.0165 325.121 49.4146C326.483 50.7769 327.165 52.4618 327.165 54.4335C327.165 56.4052 326.483 58.0901 325.121 59.4882C323.759 60.8505 322.074 61.5316 320.102 61.5316C318.131 61.5316 316.446 60.8505 315.083 59.4882Z" fill="#9092A3"/>
<path d="M342.606 54.1109L349.131 45.4712H346.299L341.172 52.2467L336.046 45.4712H333.214L339.774 54.1109L332.748 63.3958H335.58L341.172 56.0109L346.765 63.3958H349.597L342.606 54.1109Z" fill="#9092A3"/>
<path d="M23.1551 64.0746C9.56902 64.0746 0.768921 54.657 0.768921 41.2252C0.768921 27.7935 9.56902 18.3759 23.1551 18.3759C33.3447 18.3759 40.5238 24.0882 42.7624 30.3409C43.3027 31.4216 42.9168 32.7339 41.8361 33.2743C41.7589 33.3515 41.6045 33.3515 41.4501 33.4287L37.3588 35.2813C36.0465 36.0533 34.4255 35.5901 33.6535 34.2778C32.0324 31.7304 29.3307 28.3339 23.078 28.3339C15.6673 28.3339 11.0357 32.9655 11.0357 41.2252C11.0357 49.485 15.5901 54.1166 23.078 54.1166C29.3307 54.1166 31.9552 50.6429 33.6535 48.1727C34.4255 46.8604 36.0465 46.3972 37.3588 47.1692L41.4501 49.0218C42.608 49.3306 43.2256 50.5657 42.9168 51.7236C42.8396 51.878 42.8396 52.0324 42.7624 52.1868C40.3694 58.2851 33.4219 64.0746 23.1551 64.0746Z" fill="#314259"/>
<path d="M51.5607 63.1488C50.1712 63.226 49.0133 62.2225 48.9361 60.833C48.9361 60.7558 48.9361 60.6014 48.9361 60.5242V2.62876C48.8589 1.23927 49.8624 0.0813615 51.2519 0.00416759C51.3291 0.00416759 51.4835 0.00416759 51.5607 0.00416759H56.7327C58.1222 -0.0730263 59.2801 0.930494 59.3573 2.31998C59.3573 2.39718 59.3573 2.47437 59.3573 2.62876V60.6014C59.4345 61.9909 58.4309 63.1488 57.0415 63.226C56.9643 63.226 56.8871 63.226 56.7327 63.226L51.5607 63.1488Z" fill="#314259"/>
<path d="M88.3823 63.9974C74.4874 63.9974 65.9961 56.2009 65.9961 41.1481C65.9961 28.0251 74.719 18.3759 87.9192 18.3759C100.733 18.3759 107.681 27.8707 107.681 39.3726C107.681 42.2288 106.291 44.1586 102.972 44.1586H75.7225C76.2629 51.878 80.8945 54.8886 88.6911 54.8886C92.4736 54.8886 96.1789 54.1938 99.5754 52.6499C101.505 51.878 102.818 51.8008 103.744 53.6535L104.979 56.2009C105.828 57.9763 105.674 59.2886 104.207 60.2921C102.123 61.6044 96.3333 63.9974 88.3823 63.9974ZM75.7997 37.4427H98.1088C97.4912 30.2637 93.3227 27.4847 87.7648 27.4847C81.3577 27.4847 76.5717 30.2637 75.7997 37.4427Z" fill="#314259"/>
<path d="M140.489 57.8999C136.552 61.8368 131.225 63.9982 125.667 64.0754C116.481 64.0754 111.232 58.9034 111.232 50.8752C111.232 42.8471 117.562 37.2891 129.296 37.2891C132.769 37.2891 136.32 37.9067 139.64 38.9874V35.2049C139.64 30.6504 136.783 27.7943 130.917 27.7943C127.366 27.8715 123.892 28.6434 120.727 30.1101C119.338 30.7276 117.948 30.5733 117.253 29.1066L115.709 26.0188C114.86 24.3977 115.015 22.9311 116.945 21.8503C121.499 19.5345 126.517 18.3766 131.611 18.4538C142.033 18.4538 149.675 23.3942 149.675 34.8189V60.6017C149.752 61.9912 148.748 63.1491 147.359 63.2263C147.282 63.2263 147.205 63.2263 147.05 63.2263H143.113C141.724 63.3035 140.566 62.2999 140.489 60.9105C140.489 60.8333 140.489 60.7561 140.489 60.6017V57.8999ZM128.06 55.4297C132.152 55.4297 136.166 54.0402 139.408 51.57V45.9348C136.552 45.3173 133.618 45.0857 130.685 45.0857C124.896 45.0857 121.499 47.0156 121.499 50.7209C121.499 53.6542 123.892 55.4297 128.06 55.4297Z" fill="#314259"/>
<path d="M166.04 63.1487H160.868C159.479 63.2259 158.321 62.2224 158.243 60.8329C158.243 60.7557 158.243 60.6785 158.243 60.5241V21.9272C158.166 20.5377 159.17 19.3798 160.559 19.3026C160.636 19.3026 160.791 19.3026 160.868 19.3026H165.654C167.044 19.2254 168.201 20.2289 168.279 21.5412C168.279 21.6184 168.279 21.7728 168.279 21.85V26.636C170.672 23.1623 174.917 19.3026 181.479 19.3026C182.791 19.1482 183.949 20.1517 184.103 21.464C184.103 21.6184 184.103 21.7728 184.103 21.9272V26.8676C184.181 28.1799 183.1 29.2606 181.788 29.3378C181.71 29.3378 181.556 29.3378 181.479 29.3378H180.089C174.377 29.3378 171.366 30.6501 168.665 32.9659V60.6785C168.742 62.068 167.661 63.1487 166.349 63.2259C166.272 63.1487 166.194 63.1487 166.04 63.1487Z" fill="#314259"/>
</svg>
