<svg width="80" height="80" viewBox="0 0 80 80" fill="none" xmlns="http://www.w3.org/2000/svg">
<path d="M54.7998 67.5H25.1998C21.6665 67.5 18.7998 64.6333 18.7998 61.1V18.9C18.7998 15.3667 21.6665 12.5 25.1998 12.5H54.7998C58.3331 12.5 61.1998 15.3667 61.1998 18.9V61.1C61.1998 64.6333 58.3331 67.5 54.7998 67.5Z" fill="#314259"/>
<path d="M34.3772 32.8119C33.9471 33.3269 33.3392 33.7277 32.5534 34.0144C31.7677 34.2958 30.8969 34.4365 29.9413 34.4365C28.9378 34.4365 28.0565 34.2188 27.2972 33.7835C26.5433 33.3428 25.9593 32.7057 25.5452 31.8721C25.1364 31.0386 24.9266 30.059 24.916 28.9334V28.145C24.916 26.9876 25.1098 25.9868 25.4974 25.1426C25.8903 24.2931 26.4531 23.6454 27.1857 23.1994C27.9237 22.7481 28.7865 22.5225 29.774 22.5225C31.1491 22.5225 32.2243 22.8516 32.9994 23.51C33.7746 24.163 34.2338 25.1161 34.3772 26.369H32.0517C31.9455 25.7054 31.7093 25.2196 31.3429 24.9116C30.9819 24.6037 30.4828 24.4497 29.8457 24.4497C29.0334 24.4497 28.4148 24.755 27.9901 25.3656C27.5654 25.9762 27.3503 26.884 27.345 28.0893V28.8299C27.345 30.0457 27.576 30.9642 28.0379 31.5854C28.4998 32.2066 29.1767 32.5172 30.0687 32.5172C30.966 32.5172 31.6057 32.3261 31.988 31.9438V29.9449H29.8138V28.1848H34.3772V32.8119Z" fill="white"/>
<path d="M42.3332 31.235C42.3332 30.7837 42.1739 30.4386 41.8553 30.1997C41.5368 29.9555 40.9634 29.7006 40.1351 29.4352C39.3069 29.1644 38.6512 28.8989 38.168 28.6388C36.8513 27.9273 36.193 26.969 36.193 25.7638C36.193 25.1373 36.3682 24.5798 36.7186 24.0914C37.0743 23.5976 37.5813 23.2127 38.2397 22.9366C38.9034 22.6605 39.6467 22.5225 40.4696 22.5225C41.2979 22.5225 42.0358 22.6738 42.6836 22.9764C43.3313 23.2737 43.833 23.6958 44.1888 24.2427C44.5498 24.7895 44.7303 25.4107 44.7303 26.1062H42.3411C42.3411 25.5753 42.1739 25.1638 41.8394 24.8718C41.5049 24.5745 41.035 24.4258 40.4298 24.4258C39.8458 24.4258 39.3918 24.5506 39.0679 24.8001C38.7441 25.0444 38.5821 25.3682 38.5821 25.7718C38.5821 26.1487 38.7706 26.4646 39.1476 26.7195C39.5299 26.9743 40.09 27.2132 40.828 27.4362C42.1872 27.845 43.1773 28.3521 43.7985 28.9573C44.4197 29.5626 44.7303 30.3165 44.7303 31.2191C44.7303 32.2225 44.3507 33.011 43.5915 33.5844C42.8322 34.1525 41.8102 34.4365 40.5253 34.4365C39.6334 34.4365 38.8211 34.2746 38.0884 33.9507C37.3557 33.6215 36.7956 33.1729 36.408 32.6048C36.0257 32.0367 35.8346 31.3784 35.8346 30.6298H38.2317C38.2317 31.9093 38.9963 32.5491 40.5253 32.5491C41.0934 32.5491 41.5368 32.4349 41.8553 32.2066C42.1739 31.973 42.3332 31.6491 42.3332 31.235Z" fill="white"/>
<path d="M55.0834 24.617H51.5315V34.2772H49.1423V24.617H45.6382V22.6817H55.0834V24.617Z" fill="white"/>
<rect x="27.4668" y="46.957" width="5.02198" height="13.4775" rx="2.51099" fill="white"/>
<rect x="37.4888" y="43.3203" width="5.02198" height="17.114" rx="2.51099" fill="white"/>
<rect x="47.5107" y="40" width="5.02198" height="20.4343" rx="2.51099" fill="white"/>
</svg>
