<svg width="40" height="40" viewBox="0 0 40 40" fill="none" xmlns="http://www.w3.org/2000/svg">
<circle cx="20" cy="20" r="20" fill="#314259"/>
<path d="M28.1883 16.05C28.1883 17.75 26.7903 19.15 25.0927 19.15C24.3936 19.15 23.7945 18.95 23.1953 18.55C23.8943 17.75 24.3936 16.75 24.3936 15.65C24.3936 14.75 24.0941 13.95 23.6946 13.35C24.0941 13.15 24.5934 13.05 25.0927 13.05C26.7903 12.95 28.1883 14.35 28.1883 16.05Z" stroke="white" stroke-width="1.8" stroke-miterlimit="10" stroke-linecap="round" stroke-linejoin="round"/>
<path d="M27.7889 25.75H30.1856C30.6849 25.75 31.0843 25.35 30.9845 24.85C30.585 21.65 28.0885 19.15 25.0927 19.15C23.9943 19.15 23.0955 19.45 22.1968 19.95" stroke="white" stroke-width="1.8" stroke-miterlimit="10" stroke-linecap="round" stroke-linejoin="round"/>
<path d="M17.1041 18.25C16.6048 18.85 15.8059 19.15 14.9072 19.15C13.2096 19.15 11.8115 17.75 11.8115 16.05C11.8115 14.35 13.2096 12.95 14.9072 12.95C15.6062 12.95 16.2054 13.15 16.7047 13.55" stroke="white" stroke-width="1.8" stroke-miterlimit="10" stroke-linecap="round" stroke-linejoin="round"/>
<path d="M18.0028 20.15C17.1041 19.55 16.0056 19.25 14.9071 19.25C11.9113 19.25 9.41484 21.65 9.0154 24.95C8.91554 25.35 9.31498 25.75 9.81428 25.75H12.7102" stroke="white" stroke-width="1.8" stroke-miterlimit="10" stroke-linecap="round" stroke-linejoin="round"/>
<path d="M23.1958 18.55C22.4967 19.25 21.3983 19.75 20.2998 19.75C19.0016 19.75 17.9032 19.15 17.1043 18.25C16.5051 17.55 16.2056 16.65 16.2056 15.65C16.2056 14.85 16.4053 14.15 16.8047 13.55C17.5037 12.35 18.8019 11.55 20.2998 11.55C21.6979 11.55 22.8962 12.25 23.5952 13.35" stroke="white" stroke-width="1.8" stroke-miterlimit="10" stroke-linecap="round" stroke-linejoin="round"/>
<path d="M27.09 28.45H13.5091C12.9099 28.45 12.3108 27.95 12.4106 27.25C12.5105 26.75 12.6103 26.25 12.7102 25.75C13.5091 23.05 15.5063 20.95 18.0028 20.15C18.8017 19.85 19.5007 19.75 20.2996 19.75C20.8987 19.75 21.5977 19.85 22.1969 19.95C24.8931 20.65 26.9902 22.85 27.8889 25.65C27.9888 26.15 28.1885 26.65 28.1885 27.15C28.1885 27.85 27.6892 28.45 27.09 28.45Z" stroke="white" stroke-width="1.8" stroke-miterlimit="10" stroke-linecap="round" stroke-linejoin="round"/>
</svg>
