<svg width="48" height="48" viewBox="0 0 48 48" fill="none" xmlns="http://www.w3.org/2000/svg">
<path d="M30.2057 36.9857H10.6907C9.03489 36.9857 7.73389 35.5872 7.73389 33.8072V8.69684C7.73389 6.91686 9.03489 5.51831 10.6907 5.51831H30.2057C31.8615 5.51831 33.1625 6.91686 33.1625 8.69684V33.8072C33.1625 35.5872 31.8615 36.9857 30.2057 36.9857Z" fill="#314259"/>
<path d="M28.4289 12.0917H12.5212C11.9299 12.0917 11.4568 11.6186 11.4568 11.0272C11.4568 10.4359 11.9299 9.96277 12.5212 9.96277H28.3698C28.9611 9.96277 29.4342 10.4359 29.4342 11.0272C29.4934 11.6186 29.0203 12.0917 28.4289 12.0917Z" fill="white"/>
<path d="M16.6016 19.2782H12.5212C11.9299 19.2782 11.4568 18.8051 11.4568 18.2137C11.4568 17.6224 11.9299 17.1493 12.5212 17.1493H16.5425C17.1339 17.1493 17.607 17.6224 17.607 18.2137C17.6661 18.8051 17.193 19.2782 16.6016 19.2782Z" fill="white"/>
<circle cx="28.865" cy="31.0583" r="10.4601" fill="#9092A3"/>
<path d="M28.6615 33.3513L24.9924 29.6966L28.6615 26.0132" stroke="white" stroke-width="1.81032" stroke-miterlimit="10"/>
<path d="M24.7175 29.5783L29.7498 29.5783C31.5516 29.5783 33.0122 31.039 33.0122 32.8407V32.8407C33.0122 34.6425 31.5516 36.1031 29.7498 36.1031L27.2856 36.1031" stroke="white" stroke-width="1.81032" stroke-miterlimit="10"/>
</svg>
