<svg width="80" height="80" viewBox="0 0 80 80" fill="none" xmlns="http://www.w3.org/2000/svg">
<path d="M48.5745 41.9686H41.6567C40.6997 41.9686 39.9272 42.7411 39.9272 43.6981V71.6H50.3039V43.6981C50.3039 42.7411 49.5315 41.9686 48.5745 41.9686ZM34.7388 48.8864H27.821C26.864 48.8864 26.0915 49.6589 26.0915 50.6159V71.6H36.4683V50.6159C36.4683 49.6589 35.6958 48.8864 34.7388 48.8864ZM20.9032 55.8043H13.9853C13.0284 55.8043 12.2559 56.5768 12.2559 57.5337V71.6H22.6326V57.5337C22.6326 56.5768 21.8601 55.8043 20.9032 55.8043ZM62.4101 35.0508H55.4923C54.5353 35.0508 53.7629 35.8233 53.7629 36.7802V71.6H64.1396V36.7802C64.1396 35.8233 63.3671 35.0508 62.4101 35.0508Z" fill="#314259"/>
<rect x="9.14062" y="46.9629" width="53.4403" height="5.93781" rx="0.5" transform="rotate(-31.6552 9.14062 46.9629)" fill="#9092A3"/>
<path d="M65.4213 16.315L58.2581 31.3351L48.8319 17.6216L65.4213 16.315Z" fill="#9092A3"/>
</svg>
