<svg width="48" height="48" viewBox="0 0 48 48" fill="none" xmlns="http://www.w3.org/2000/svg">
<path d="M45 24.9161C45 27.1827 44.0939 29.2521 42.6 30.7303C41.1306 32.2085 39.0735 33.1446 36.8204 33.1446H11.1796C6.64898 33.12 3 29.4492 3 24.9161C3 22.6496 3.90612 20.5802 5.4 19.102C6.86939 17.6238 8.92653 16.6876 11.1796 16.6876H11.5224C12.2327 9.56778 18.2082 4 25.4816 4C32.902 4 38.9755 9.78951 39.4898 17.1311C42.698 18.2397 45 21.2946 45 24.9161Z" fill="#9092A3"/>
<path d="M35.6787 27.3331V41.208C35.6787 43.1633 34.1001 44.7419 32.1448 44.7419H19.5339C17.5786 44.7419 16 43.1633 16 41.208V22.5339C16 20.5786 17.5786 19 19.5339 19H27.3457L35.6787 27.3331Z" fill="#314259"/>
<path d="M21.0989 34.9356L25.3724 30.6453L29.6795 34.9356" stroke="white" stroke-width="1.81032" stroke-miterlimit="10"/>
<path d="M25.3892 30.6453V39.2259" stroke="white" stroke-width="1.81032" stroke-miterlimit="10"/>
<path d="M27.3457 27.1816V19L35.5273 27.1816H27.3457Z" fill="#E5E5E9"/>
</svg>
