<svg width="136" height="25" viewBox="0 0 136 25" fill="none" xmlns="http://www.w3.org/2000/svg">
<path d="M15.9663 16.2877C13.9976 15.6446 11.8976 15.6184 11.8976 15.6184C11.8976 15.6184 11.8714 15.6184 11.7795 15.6184C11.6876 15.6184 11.6614 15.6184 11.6614 15.6184C11.6614 15.6184 9.73202 15.6709 7.85518 16.2352C12.3045 17.9808 15.9663 16.2877 15.9663 16.2877Z" fill="#FFDE17"/>
<path d="M11.9896 24.924C18.2016 24.924 23.2375 19.8882 23.2375 13.6761C23.2375 7.46406 18.2016 2.42819 11.9896 2.42819C5.77752 2.42819 0.741653 7.46406 0.741653 13.6761C0.741653 19.8882 5.77752 24.924 11.9896 24.924Z" fill="#FFCF32"/>
<path d="M21.0981 17.3642C21.1243 17.3642 21.1243 17.3642 21.1506 17.338C21.7675 17.1017 22.2662 16.8392 22.6468 16.603C23.0274 16.3667 23.4999 16.0517 23.9987 15.6055L24.0249 15.5792C24.4055 15.3167 24.4055 14.6999 24.2349 14.3455C23.9068 13.7943 23.0012 13.348 22.4499 13.033C22.4499 13.033 21.6625 12.6262 20.9537 12.508C20.9275 12.508 20.8618 12.508 20.8356 12.4818C20.5993 12.4555 20.4287 12.508 20.245 12.5999C20.1006 12.6918 19.9562 12.8362 19.8644 13.033C19.8381 13.0593 19.8381 13.1249 19.8381 13.1512C19.6019 13.8205 19.6019 14.6999 19.6019 14.6999C19.6019 15.343 19.5756 16.3405 19.93 16.8655C20.1269 17.3117 20.6912 17.5742 21.0981 17.3642Z" fill="#1678FB"/>
<path d="M17.318 16.8393C15.1262 15.6974 11.8975 15.6056 11.8975 15.6056C11.8975 15.6056 11.8712 15.6056 11.7794 15.6056C11.6875 15.6056 11.6612 15.6056 11.6612 15.6056C11.6612 15.6056 8.43255 15.6974 6.24071 16.8393C5.03324 17.4824 5.71572 19.5036 5.83385 20.5667C5.92572 21.4986 5.83385 20.593 6.00447 21.4986C6.14884 22.2336 6.21447 23.1129 6.67383 23.7298C7.0807 24.2811 7.76319 24.6092 8.4063 24.7273C8.55067 24.7535 8.69505 24.7798 8.83942 24.8192C11.8319 25.226 14.6668 24.8192 14.6668 24.8192C14.8374 24.7929 14.9949 24.7667 15.0999 24.7273C15.7693 24.6092 16.4124 24.2548 16.8324 23.7298C17.3049 23.1129 17.3574 22.2336 17.5018 21.4986C17.6724 20.593 17.5543 21.4986 17.6724 20.5667C17.843 19.5036 18.5124 17.4824 17.318 16.8393Z" fill="#1678FB"/>
<path d="M15.9663 16.2877C13.9976 15.6446 11.8976 15.6184 11.8976 15.6184C11.8976 15.6184 11.8714 15.6184 11.7795 15.6184C11.6876 15.6184 11.6614 15.6184 11.6614 15.6184C11.6614 15.6184 9.73202 15.6709 7.85518 16.2352C12.3045 17.9808 15.9663 16.2877 15.9663 16.2877Z" fill="#1369DB"/>
<path d="M18.1057 3.09751C18.0138 3.07126 17.9351 3.04501 17.8169 3.00564C15.1789 2.33627 11.7796 2.41502 11.5827 2.41502C11.3858 2.41502 8.03899 2.32315 5.40091 3.00564C5.30904 3.03189 5.23029 3.03189 5.11217 3.09751C4.24593 3.38626 3.66844 4.18687 3.66844 5.11873C3.66844 5.17123 3.66844 5.23685 3.66844 5.28935C3.69469 6.19496 3.76032 10.093 4.31156 12.2061C4.31156 12.2324 4.3378 12.2586 4.3378 12.298C4.50843 12.8886 4.92842 13.348 5.47966 13.6105C5.47966 13.6105 6.1884 14.2798 11.5433 14.2798C16.9113 14.2798 17.6069 13.6105 17.6069 13.6105C18.1319 13.348 18.5782 12.8755 18.7488 12.298C18.7488 12.2717 18.7751 12.2455 18.7751 12.2061C19.3263 10.093 19.4444 6.23433 19.4838 5.28935C19.4838 5.23685 19.4838 5.17123 19.4838 5.11873C19.5494 4.18687 18.9588 3.38626 18.1057 3.09751Z" fill="#1678FB"/>
<path d="M7.9981 7.49431C8.7737 7.49431 9.40245 6.86556 9.40245 6.08996C9.40245 5.31436 8.7737 4.68561 7.9981 4.68561C7.2225 4.68561 6.59375 5.31436 6.59375 6.08996C6.59375 6.86556 7.2225 7.49431 7.9981 7.49431Z" fill="white"/>
<path d="M15.0879 7.49431C15.8635 7.49431 16.4923 6.86556 16.4923 6.08996C16.4923 5.31436 15.8635 4.68561 15.0879 4.68561C14.3123 4.68561 13.6836 5.31436 13.6836 6.08996C13.6836 6.86556 14.3123 7.49431 15.0879 7.49431Z" fill="white"/>
<path d="M15.2052 9.72519C15.2052 9.69894 15.1789 9.69894 15.1789 9.67269L15.1264 9.58082C14.9164 9.37082 14.6014 9.37082 14.6014 9.37082C12.4096 9.58082 9.79774 9.46269 8.47214 9.37082C8.26214 9.37082 8.09152 9.46269 7.99965 9.60706C7.88153 9.77769 7.88153 9.98768 7.99965 10.1583C8.55089 11.1295 9.49587 11.8514 10.5721 12.1795C11.9502 12.6126 13.4464 12.0876 14.4702 11.1558C14.7589 10.8933 15.0214 10.5652 15.2052 10.2239C15.2708 10.0664 15.297 9.86956 15.2052 9.72519Z" fill="white"/>
<path d="M11.6071 2.45455C11.7515 2.45455 13.7465 2.40205 15.8595 2.66455C15.2952 1.19457 13.589 0.144592 11.5677 0.144592C9.54652 0.144592 7.8403 1.19457 7.28906 2.6908C9.4284 2.38893 11.4234 2.45455 11.6071 2.45455Z" fill="#16CC65"/>
<path d="M4.36405 22.115C4.36405 22.0888 4.36405 22.0888 4.36405 22.0625C4.50842 21.4457 4.6003 20.8944 4.62654 20.422C4.65279 19.9495 4.65279 19.3982 4.57405 18.7551C4.57405 18.7289 4.57405 18.7289 4.57405 18.7026C4.57405 18.2695 4.0753 17.8757 3.66844 17.8495C3.02532 17.797 2.14596 18.2826 1.59472 18.5845C1.59472 18.5845 0.807236 18.9914 0.308494 19.5163C0.282245 19.5426 0.255995 19.5688 0.216621 19.6082C0.0984979 19.7788 0.00662445 19.9626 0.00662445 20.1595C-0.0196251 20.3301 0.032874 20.5401 0.150997 20.7107C0.177247 20.7369 0.203496 20.7632 0.203496 20.8026C0.610364 21.3538 1.3716 21.8919 1.3716 21.8919C1.89659 22.2463 2.68408 22.8632 3.34032 22.8632C3.74719 22.8763 4.31155 22.5482 4.36405 22.115Z" fill="#1678FB"/>
<path d="M37.1763 22.8764C32.3332 22.8764 29.1833 19.5164 29.1833 14.7259C29.1833 9.93534 32.3332 6.57539 37.1763 6.57539C40.825 6.57539 43.3843 8.60973 44.1849 10.8409C44.3949 11.4578 44.1193 11.7728 43.7255 11.9566L42.2687 12.5997C41.6518 12.8753 41.1925 12.6653 40.9431 12.2584C40.3525 11.3659 39.3944 10.1322 37.1763 10.1322C34.5251 10.1322 32.8845 11.7991 32.8845 14.739C32.8845 17.679 34.5251 19.3458 37.1763 19.3458C39.3944 19.3458 40.3525 18.1121 40.9431 17.2196C41.1925 16.8127 41.6518 16.6027 42.2687 16.8783L43.7255 17.5215C44.1324 17.7052 44.4343 18.0202 44.1849 18.6371C43.3187 20.8158 40.825 22.8764 37.1763 22.8764Z" fill="#314259"/>
<path d="M47.3104 22.5352C46.7592 22.5352 46.3786 22.1677 46.3786 21.6034V0.931859C46.3786 0.380618 46.7461 0 47.3104 0H49.161C49.7123 0 50.0929 0.367494 50.0929 0.931859V21.6165C50.0929 22.1677 49.7254 22.5484 49.161 22.5484H47.3104V22.5352Z" fill="#314259"/>
<path d="M60.4575 22.8499C55.4832 22.8499 52.4645 20.0675 52.4645 14.6994C52.4645 10.0008 55.5882 6.5752 60.2737 6.5752C64.8412 6.5752 67.348 9.97451 67.348 14.0826C67.348 15.1063 66.8493 15.7757 65.6812 15.7757H55.9295C56.1132 18.5187 57.78 19.6081 60.5625 19.6081C62.3475 19.6081 63.5943 19.175 64.4474 18.8075C65.1299 18.5319 65.5893 18.4925 65.9305 19.175L66.3636 20.0675C66.6786 20.7106 66.613 21.1831 66.088 21.5243C65.3662 21.9837 63.2924 22.8499 60.4575 22.8499ZM55.9426 13.3738H63.8831C63.6731 10.8145 62.19 9.81701 60.1819 9.81701C57.9507 9.81701 56.2313 10.8014 55.9426 13.3738Z" fill="#314259"/>
<path d="M79.0438 20.6583C77.902 21.8658 75.8939 22.8501 73.7283 22.8501C70.4602 22.8501 68.5703 20.9995 68.5703 18.1252C68.5703 15.2902 70.8277 13.2822 75.0277 13.2822C76.4845 13.2822 77.7182 13.5578 78.7288 13.899V12.534C78.7288 10.8934 77.7051 9.88284 75.6051 9.88284C74.0564 9.88284 72.9146 10.316 71.9565 10.7228C71.4577 10.9328 70.9721 10.8803 70.7227 10.3816L70.1715 9.26597C69.8565 8.67536 69.9221 8.15037 70.6046 7.78287C71.8646 7.10038 73.7546 6.57539 75.8545 6.57539C79.5557 6.57539 82.3119 8.33411 82.3119 12.4159V21.6164C82.3119 22.1676 81.9444 22.5482 81.38 22.5482H79.9626C79.4113 22.5482 79.0307 22.1807 79.0307 21.6164V20.6583H79.0438ZM74.6339 19.792C76.1826 19.792 77.6001 19.2408 78.6763 18.4008V16.3927C77.7445 16.209 76.7601 16.0777 75.5526 16.0777C73.4789 16.0777 72.2846 16.7602 72.2846 18.0858C72.2846 19.1489 73.1114 19.792 74.6339 19.792Z" fill="#314259"/>
<path d="M88.1919 22.5354H86.3413C85.7901 22.5354 85.4095 22.1679 85.4095 21.6035V7.80938C85.4095 7.25814 85.777 6.87752 86.3413 6.87752H88.0344C88.5857 6.87752 88.9663 7.24501 88.9663 7.80938V9.50247C89.8325 8.26874 91.3419 6.87752 93.6912 6.87752C94.3081 6.87752 94.6231 7.24501 94.6231 7.80938V9.5681C94.6231 10.0931 94.2556 10.4343 93.6912 10.4343H93.1925C91.1581 10.4343 90.0688 10.8937 89.1107 11.7337V21.6166C89.1107 22.1679 88.7432 22.5354 88.1919 22.5354Z" fill="#314259"/>
<path d="M103.719 22.5354H102.669C97.9442 22.5354 96.3036 20.3174 96.3036 17.1018V3.08452C96.3036 2.53328 96.6711 2.15266 97.2354 2.15266H99.086C99.6373 2.15266 100.018 2.52016 100.018 3.08452V6.87758H103.719C104.27 6.87758 104.651 7.24508 104.651 7.80944V9.20067C104.651 9.75191 104.283 10.1325 103.719 10.1325H100.018V17.548C100.018 18.7161 100.818 19.3067 102.236 19.3067H103.719C104.27 19.3067 104.651 19.6742 104.651 20.2386V21.6298C104.651 22.1679 104.27 22.5354 103.719 22.5354Z" fill="#314259"/>
<path d="M116.501 20.6581C115.359 21.8656 113.351 22.8499 111.185 22.8499C107.917 22.8499 106.027 20.9993 106.027 18.125C106.027 15.29 108.284 13.282 112.484 13.282C113.941 13.282 115.175 13.5576 116.186 13.8988V12.5338C116.186 10.8932 115.162 9.88264 113.062 9.88264C111.513 9.88264 110.371 10.3158 109.413 10.7226C108.914 10.9326 108.429 10.8801 108.179 10.3814L107.628 9.26577C107.313 8.67516 107.379 8.15017 108.061 7.78267C109.321 7.10019 111.211 6.5752 113.311 6.5752C117.012 6.5752 119.769 8.33391 119.769 12.4157V21.6162C119.769 22.1674 119.401 22.548 118.837 22.548H117.419C116.868 22.548 116.487 22.1806 116.487 21.6162V20.6581H116.501ZM112.091 19.7918C113.639 19.7918 115.057 19.2406 116.133 18.4006V16.3925C115.201 16.2088 114.217 16.0775 113.009 16.0775C110.936 16.0775 109.741 16.76 109.741 18.0856C109.741 19.1487 110.568 19.7918 112.091 19.7918Z" fill="#314259"/>
<path d="M124.154 22.5354H122.054C121.503 22.5354 121.345 22.0104 121.595 21.6429L126.346 14.6605L121.595 7.77C121.319 7.36313 121.503 6.87752 122.054 6.87752H124.246C125.047 6.87752 125.453 7.03501 125.795 7.58626L128.787 12.2193L131.753 7.58626C132.095 7.06126 132.488 6.87752 133.302 6.87752H135.402C135.953 6.87752 136.111 7.40251 135.861 7.77L131.11 14.7655L135.861 21.656C136.137 22.0629 135.953 22.5485 135.402 22.5485H133.21C132.41 22.5485 132.003 22.3647 131.661 21.8398L128.669 17.1936L125.729 21.7741C125.362 22.3254 124.968 22.5354 124.154 22.5354Z" fill="#314259"/>
</svg>
