<svg width="48" height="48" viewBox="0 0 48 48" fill="none" xmlns="http://www.w3.org/2000/svg">
<path d="M29.1156 32.8826C22.2444 32.8826 16.6743 27.3124 16.6743 20.4413C16.6743 13.5702 22.2444 8 29.1156 8C35.9867 8 41.5569 13.5702 41.5569 20.4413C41.5569 27.3124 35.9867 32.8826 29.1156 32.8826Z" fill="#9092A3"/>
<path d="M45.7814 31.202C46.3247 32.4695 45.8267 33.9634 44.6045 34.6424C40.1228 37.0869 29.3941 42.2023 21.2005 40.4368C14.6817 39.0335 10.2001 38.0828 7.71034 37.5396C6.26173 37.2227 5.08475 36.2268 4.49625 34.8235L2.32334 29.3007C1.46324 27.173 2.36861 24.7285 4.45098 23.6873L7.43873 22.2387C10.0191 20.8807 12.9615 20.2922 15.904 20.4732L28.3529 21.1975C29.9826 21.2881 31.2501 22.6461 31.2954 24.2306C31.3407 25.8602 30.1184 27.2183 28.534 27.3994L22.6038 28.1237C21.6531 28.2142 21.1099 29.2101 21.5173 30.0702C21.6984 30.4324 22.0153 30.704 22.4227 30.8398L26.8138 31.9715C28.6245 32.4242 30.5258 32.4695 32.3819 32.0168L42.7032 29.6175C43.9707 29.3459 45.2835 30.025 45.7814 31.202Z" fill="#314259"/>
</svg>
