<svg width="60" height="60" viewBox="0 0 60 60" fill="none" xmlns="http://www.w3.org/2000/svg">
<path d="M30 -3.07065e-06C46.5429 -1.3774e-06 60 13.4571 60 30C60 46.5429 46.5429 60 30 60C13.4571 60 2.52896e-06 46.5429 3.7642e-06 30C4.99944e-06 13.4571 13.4571 -4.76391e-06 30 -3.07065e-06Z" fill="#314259"/>
<path d="M28.8259 15.0872C29.1171 14.509 29.9388 14.4981 30.2452 15.0685L34.9904 23.9023C35.1109 24.1266 35.331 24.2802 35.5832 24.3158L45.5484 25.7239C46.2165 25.8183 46.4749 26.6466 45.9789 27.1041L38.6925 33.8252C38.4907 34.0113 38.3985 34.2878 38.448 34.5577L40.2041 44.1192C40.3231 44.767 39.6519 45.273 39.0618 44.9804L29.8789 40.4264C29.6516 40.3137 29.3844 40.3154 29.1586 40.4311L20.3415 44.9494C19.751 45.2521 19.07 44.7456 19.1899 44.093L20.9411 34.5577C20.9907 34.2878 20.8984 34.0113 20.6967 33.8252L13.4102 27.1041C12.9143 26.6466 13.1726 25.8183 13.8407 25.7239L23.7927 24.3177C24.0522 24.281 24.2774 24.1195 24.3953 23.8854L28.8259 15.0872Z" fill="white"/>
</svg>
