<svg width="40" height="40" viewBox="0 0 40 40" fill="none" xmlns="http://www.w3.org/2000/svg">
<circle cx="20" cy="20" r="20" fill="#314259"/>
<path d="M28.8791 25.4224L23.9817 30.3199C23.4836 30.8179 22.7365 30.8179 22.2385 30.3199L12.6095 20.6909C12.2775 20.3589 12.1945 19.9438 12.2775 19.4458L13.3566 15.5444C13.4396 15.1294 13.8547 14.7973 14.2697 14.6313L18.0881 13.6352C18.5031 13.5522 19.0012 13.6352 19.2502 13.9673L28.8791 23.5962C29.3772 24.1773 29.3772 24.9243 28.8791 25.4224Z" stroke="white" stroke-width="1.8" stroke-miterlimit="10" stroke-linecap="round" stroke-linejoin="round"/>
<path d="M16.9263 19.6949C17.6598 19.6949 18.2544 19.1002 18.2544 18.3667C18.2544 17.6332 17.6598 17.0386 16.9263 17.0386C16.1928 17.0386 15.5981 17.6332 15.5981 18.3667C15.5981 19.1002 16.1928 19.6949 16.9263 19.6949Z" stroke="white" stroke-width="1.8" stroke-miterlimit="10" stroke-linecap="round" stroke-linejoin="round"/>
<path d="M17.8393 17.7856C16.6772 18.9478 14.519 18.6987 12.8588 17.3706C12.6928 17.2046 12.5268 17.0386 12.3608 16.9556C10.6176 15.2124 10.2025 12.8051 11.5307 11.477C12.8588 10.1489 15.266 10.5639 17.0092 12.3071C17.4243 12.7221 17.7563 13.2202 18.0883 13.7182" stroke="white" stroke-width="1.8" stroke-miterlimit="10" stroke-linecap="round" stroke-linejoin="round"/>
</svg>
