<svg width="48" height="48" viewBox="0 0 48 48" fill="none" xmlns="http://www.w3.org/2000/svg">
<path d="M30.2287 18.2757C33.402 18.2757 36.5124 18.3385 39.6542 18.2442C41.6649 18.1814 43.3615 18.7783 44.147 20.6948C44.9638 22.6114 44.3669 24.4022 42.7646 25.7218C42.199 26.193 42.5761 26.4129 42.7331 26.7271C43.6129 28.6122 43.55 30.4031 42.1676 31.974C41.6964 32.5081 41.9163 32.8851 42.0734 33.3564C42.5132 34.7388 42.3247 36.1526 41.4136 37.2208C40.6281 38.1319 40.4396 39.0116 40.4396 40.1427C40.471 43.0017 38.7745 44.6669 35.9154 44.8868C30.6686 45.2953 25.6103 44.6041 20.709 42.719C18.7611 41.9649 16.8132 41.2423 14.6768 41.1481C13.9541 41.1166 13.9856 40.7396 13.9856 40.2369C13.9856 34.4874 13.9856 28.7379 13.9856 22.957C13.9856 22.36 14.0484 21.9516 14.8024 21.983C15.8078 22.0458 16.5933 21.5117 17.2845 20.8519C20.332 18.0243 22.6255 14.5683 25.2332 11.3951C26.3643 10.0127 26.4586 8.09618 26.9298 6.3996C27.0555 5.99116 27.0869 5.58272 27.2126 5.17429C27.4954 4.326 27.4325 3.22636 28.6578 3.03786C30.2287 2.81793 31.7368 3.57196 32.3023 4.89153C33.2135 7.05938 33.1506 9.25865 32.3966 11.4579C31.7054 13.7514 30.3544 15.7308 30.2287 18.2757Z" fill="#314259"/>
<path d="M12.7603 42.6561H6.79083C5.81687 42.6561 5 41.8707 5 40.8653V22.2343C5 21.2604 5.78545 20.4435 6.79083 20.4435H12.7603C13.7342 20.4435 14.5511 21.2289 14.5511 22.2343V40.8653C14.5197 41.8392 13.7342 42.6561 12.7603 42.6561Z" fill="#9092A3"/>
<path d="M9.78972 39.7044C10.9853 39.7044 11.9544 38.7353 11.9544 37.5397C11.9544 36.3442 10.9853 35.375 9.78972 35.375C8.59418 35.375 7.625 36.3442 7.625 37.5397C7.625 38.7353 8.59418 39.7044 9.78972 39.7044Z" fill="#314259"/>
</svg>
