<svg width="80" height="80" viewBox="0 0 80 80" fill="none" xmlns="http://www.w3.org/2000/svg">
<path d="M67.5 43.6013C67.5 50.2278 62.242 55.5799 55.7322 55.5799H25.019C18.0918 55.5799 12.5 49.8596 12.5 42.8367C12.5 36.4935 17.0346 31.2546 22.9603 30.2635C23.2107 25.5343 27.022 21.7963 31.7236 21.7963C32.28 21.7963 32.8085 21.853 33.3371 21.9379C35.8966 17.6336 40.5703 14.7734 45.9117 14.7734C54.063 14.7734 60.6841 21.5132 60.6841 29.8104C60.6841 30.7732 60.6007 31.7077 60.4337 32.6139C64.5789 34.4545 67.5 38.674 67.5 43.6013Z" fill="#314259"/>
<path d="M46.0961 33.4491H43.278C43.1122 32.7647 42.7806 32.2513 42.2833 31.7379H46.0961C46.925 31.7379 47.4223 31.0535 47.4223 30.369C47.4223 29.6845 46.7592 29 46.0961 29H34.3262C33.4973 29 33 29.6845 33 30.369C33 31.0535 33.6631 31.7379 34.3262 31.7379H35.6524C37.6417 31.7379 39.2994 32.4224 40.294 33.4491H34.492C33.6631 33.4491 33.1658 34.1336 33.1658 34.8181C33.1658 35.5026 33.8289 36.1871 34.492 36.1871H40.9571C40.7913 36.7004 40.6256 37.0427 40.294 37.3849C39.4652 38.2405 37.9732 38.5828 36.1497 38.5828C35.6524 38.5828 35.1551 38.5828 34.6577 38.4117C34.492 38.4117 34.3262 38.4117 34.1604 38.4117C33.9946 38.4117 33.8289 38.5828 33.6631 38.7539C33.6631 38.7539 33.4973 38.7539 33.4973 38.925C33.4973 39.0961 33.3315 39.0961 33.3315 39.2673C33.3315 39.4384 33.3315 39.4384 33.1658 39.6095V39.7806C33.1658 39.9517 33.1658 40.1229 33.1658 40.294C33.1658 40.4651 33.3315 40.6362 33.4973 40.8073L41.4544 49.7056C41.786 50.0479 42.1175 50.219 42.4491 50.219C42.7806 50.219 43.1122 50.0479 43.4437 49.8768C43.941 49.3634 44.1068 48.5078 43.4437 47.8233L37.6417 41.3207C39.6309 41.1496 41.1229 40.4651 42.2833 39.2673C43.1122 38.4117 43.6095 37.3849 43.7753 36.016H46.2619C47.0907 36.016 47.5881 35.3315 47.5881 34.647C47.5881 33.9625 46.7592 33.4491 46.0961 33.4491Z" fill="white"/>
</svg>
