<svg width="80" height="80" viewBox="0 0 80 80" fill="none" xmlns="http://www.w3.org/2000/svg">
<path d="M59.4522 59.4522C54.4779 64.4265 47.6029 67.5 40 67.5C24.8143 67.5 12.5 55.1857 12.5 40C12.5 24.8143 24.8143 12.5 40 12.5V22.6103C30.3952 22.6103 22.6103 30.3952 22.6103 40C22.6103 49.6048 30.3952 57.3897 40 57.3897C44.8125 57.3897 49.1599 55.4485 52.2941 52.2941L59.4522 59.4522Z" fill="#314259"/>
<path d="M67.4998 40.0004C67.4998 46.1272 65.498 51.8092 62.1009 56.3791L59.2094 53.4673L54.8215 49.0997C56.4594 46.4508 57.3895 43.3368 57.3895 40.0004C57.3895 31.7908 51.7075 24.9158 44.0439 23.0758V12.8037C57.3086 14.7449 67.4998 26.1897 67.4998 40.0004Z" fill="#9092A3"/>
<path d="M46.0966 34.9491H43.2784C43.1127 34.2647 42.7811 33.7513 42.2838 33.2379H46.0966C46.9255 33.2379 47.4228 32.5535 47.4228 31.869C47.4228 31.1845 46.7597 30.5 46.0966 30.5H34.3267C33.4978 30.5 33.0005 31.1845 33.0005 31.869C33.0005 32.5535 33.6636 33.2379 34.3267 33.2379H35.6529C37.6421 33.2379 39.2999 33.9224 40.2945 34.9491H34.4924C33.6636 34.9491 33.1663 35.6336 33.1663 36.3181C33.1663 37.0026 33.8294 37.6871 34.4924 37.6871H40.9576C40.7918 38.2004 40.6261 38.5427 40.2945 38.8849C39.4657 39.7405 37.9737 40.0828 36.1502 40.0828C35.6529 40.0828 35.1555 40.0828 34.6582 39.9117C34.4924 39.9117 34.3267 39.9117 34.1609 39.9117C33.9951 39.9117 33.8294 40.0828 33.6636 40.2539C33.6636 40.2539 33.4978 40.2539 33.4978 40.425C33.4978 40.5961 33.332 40.5961 33.332 40.7673C33.332 40.9384 33.332 40.9384 33.1663 41.1095V41.2806C33.1663 41.4517 33.1663 41.6229 33.1663 41.794C33.1663 41.9651 33.332 42.1362 33.4978 42.3073L41.4549 51.2056C41.7865 51.5479 42.118 51.719 42.4496 51.719C42.7811 51.719 43.1127 51.5479 43.4442 51.3768C43.9415 50.8634 44.1073 50.0078 43.4442 49.3233L37.6421 42.8207C39.6314 42.6496 41.1234 41.9651 42.2838 40.7673C43.1127 39.9117 43.61 38.8849 43.7758 37.516H46.2624C47.0912 37.516 47.5886 36.8315 47.5886 36.147C47.5886 35.4625 46.7597 34.9491 46.0966 34.9491Z" fill="#9092A3"/>
</svg>
