<svg width="27" height="32" viewBox="0 0 27 32" fill="none" xmlns="http://www.w3.org/2000/svg">
<rect width="27" height="32" fill="#E5E5E5"/>
<path d="M23.2057 31.9857H3.6907C2.03489 31.9857 0.733887 30.5872 0.733887 28.8072V3.69684C0.733887 1.91686 2.03489 0.518311 3.6907 0.518311H23.2057C24.8615 0.518311 26.1625 1.91686 26.1625 3.69684V28.8072C26.1625 30.5872 24.8615 31.9857 23.2057 31.9857Z" fill="#314259"/>
<path d="M21.4289 7.09168H5.52124C4.92988 7.09168 4.45679 6.61859 4.45679 6.02722C4.45679 5.43586 4.92988 4.96277 5.52124 4.96277H21.3698C21.9611 4.96277 22.4342 5.43586 22.4342 6.02722C22.4934 6.61859 22.0203 7.09168 21.4289 7.09168Z" fill="white"/>
<path d="M12.5227 28H6.55643C5.69175 28 5 27.5556 5 27C5 26.4444 5.69175 26 6.55643 26H12.4363C13.3009 26 13.9927 26.4444 13.9927 27C14.0792 27.5556 13.3874 28 12.5227 28Z" fill="white"/>
<path d="M21.9721 21.1289H6.06445C5.47309 21.1289 5 20.6558 5 20.0645C5 19.4731 5.47309 19 6.06445 19H21.913C22.5043 19 22.9774 19.4731 22.9774 20.0645C23.0366 20.6558 22.5635 21.1289 21.9721 21.1289Z" fill="white"/>
<path d="M21.9721 14.1289H6.06445C5.47309 14.1289 5 13.6558 5 13.0645C5 12.4731 5.47309 12 6.06445 12H21.913C22.5043 12 22.9774 12.4731 22.9774 13.0645C23.0366 13.6558 22.5635 14.1289 21.9721 14.1289Z" fill="white"/>
</svg>
